# xmcd
#
# Track frame offsets:
#	150
#	15535
#	31687
#	47632
#	65250
#	81315
#	98660
#	111040
#	123617
#	137845
#	149705
#	162660
#	179882
#	196905
#	223482
#
# Disc length: 3044 seconds
#
# Revision: 1
# Processed by: cddbd v1.5.1PL0 Copyright (c) Steve Scherf et al.
# Submitted via: EasyCDDAExtractor 7.0.6.1
#
DISCID=e40be20f
DTITLE=Chain Of Hearts
DYEAR=1900
DGENRE=Country
TTITLE0=Chain Of Hearts
TTITLE1=Coward
TTITLE2=Long Lost Girl
TTITLE3=You'll Always Be In Love With me
TTITLE4=Chicka's Chune
TTITLE5=Rachel
TTITLE6=Too Far Away
TTITLE7=Let This Fling Begin
TTITLE8=Leaving Today
TTITLE9=3 Step Waltz
TTITLE10=Rebound
TTITLE11=Burning Away
TTITLE12=Healing Of Time
TTITLE13=Oasis In The Wasteland
TTITLE14=Chicka's Reprise
EXTD=
EXTT0=
EXTT1=
EXTT2=
EXTT3=
EXTT4=
EXTT5=
EXTT6=
EXTT7=
EXTT8=
EXTT9=
EXTT10=
EXTT11=
EXTT12=
EXTT13=
EXTT14=
PLAYORDER=
